<svg width="71" height="16" viewBox="0 0 71 16" fill="none" xmlns="http://www.w3.org/2000/svg">
<path fill-rule="evenodd" clip-rule="evenodd" d="M27.2576 4.41305L28.2811 4.32221L27.9162 0.134501C28.4926 0.239558 29.0557 0.408508 29.595 0.638084V4.37544H30.8646V1.31983C31.3567 1.64667 31.812 2.02631 32.2221 2.45194L32.0599 4.31297L33.3238 4.42229L33.361 3.9595C34.0751 5.17988 34.45 6.5696 34.4468 7.98434C34.4491 9.26204 34.1441 10.5216 33.5576 11.656L32.475 11.562L32.3128 13.423C31.8803 13.8878 31.394 14.2992 30.8646 14.6489V11.6092H29.5978V15.3306C29.1584 15.5171 28.7031 15.6638 28.2375 15.7685L27.8723 11.5716L26.8456 11.6621L27.2169 15.9655C26.9733 15.9896 26.7284 16.0011 26.4836 15.9999C26.2012 15.9995 25.9189 15.985 25.638 15.9563L24.8738 11.6121L24.0966 11.7497L24.8112 15.8154C24.1133 15.6637 23.4387 15.4198 22.805 15.09L21.8687 11.634L21.2602 11.7998L22.0122 14.6144C20.9333 13.8839 20.0499 12.8989 19.4395 11.7462C18.829 10.5935 18.5102 9.30818 18.5112 8.00315C18.5114 7.4397 18.571 6.87787 18.689 6.32698L20.14 10.3266L20.5863 10.1641L18.9635 5.69527L18.8357 5.73894C19.0643 4.96149 19.4093 4.22322 19.8591 3.54962L20.14 4.32221L20.5863 4.15966L20.196 3.08365C20.6406 2.51557 21.1592 2.00987 21.7377 1.57959L22.4866 4.39424L23.1107 4.2285L22.3055 1.21051C22.8974 0.842129 23.5355 0.553845 24.2029 0.353464L24.9206 4.4191L25.6975 4.28141L24.9734 0.15968C25.4712 0.0641769 25.9768 0.0158069 26.4836 0.0156175H26.8736L27.2576 4.41305ZM32.0754 10.3082L33.3394 10.4175L33.7107 5.67647L32.4623 5.56682L32.0754 10.3082ZM26.8332 5.6669L27.2484 10.4082L28.2718 10.3174L27.8598 5.57639L26.8332 5.6669ZM24.0874 5.71376L24.9111 10.405L25.6879 10.2674L24.8643 5.57639L24.0874 5.71376ZM21.2633 5.77654L22.4897 10.3738L23.1012 10.2081L21.8719 5.61081L21.2633 5.77654ZM29.595 10.3706H30.8522V5.61368H29.5854L29.595 10.3706Z" fill="#ED6432"/>
<path d="M13.9396 9.6637L7.78941 13.1977V11.4747L13.9396 8.12203V9.6637Z" fill="#ED6432"/>
<path d="M12.5824 8.76012H2.98717V7.39948H12.5824V8.76012Z" fill="#ED6432"/>
<path d="M13.9396 6.49272V8.03438L7.78941 4.68173V2.95871L13.9396 6.49272Z" fill="#ED6432"/>
<path fill-rule="evenodd" clip-rule="evenodd" d="M8.46321 0C10.5744 0 12.5991 0.840716 14.092 2.33688C15.5847 3.83301 16.4235 5.86213 16.4236 7.97797C16.4236 10.0939 15.5848 12.1232 14.092 13.6194C12.5991 15.1155 10.5744 15.9563 8.46321 15.9563C6.35179 15.9562 4.32681 15.1158 2.83351 13.6197C1.3402 12.1236 0.500827 10.0942 0.5 7.97797C0.500867 5.86184 1.34024 3.8326 2.83351 2.33656C4.32681 0.840497 6.35178 1.09308e-05 8.46321 0ZM8.46321 1.25099C6.68335 1.25266 4.97679 1.96186 3.71793 3.22293C2.45908 4.48401 1.75056 6.19412 1.74804 7.97797C1.75052 9.76187 2.45905 11.4722 3.71793 12.7333C4.97679 13.9944 6.68335 14.7036 8.46321 14.7053C10.2426 14.7028 11.9484 13.9931 13.2066 12.732C14.4648 11.471 15.1727 9.76132 15.1752 7.97797C15.171 6.19575 14.4624 4.48767 13.2044 3.22803C11.9856 2.00776 10.3475 1.30457 8.6296 1.2596L8.46321 1.25099Z" fill="#ED6432"/>
<path d="M45.181 13.5948H43.8486V12.2594H45.181V13.5948Z" fill="#ED6432"/>
<path d="M44.5285 8.92298L41.0621 12.3971L40.1662 11.4992L43.6326 8.02514L44.5285 8.92298Z" fill="#ED6432"/>
<path d="M48.8949 11.4976L47.999 12.3955L44.5326 8.92139L45.4285 8.02355L48.8949 11.4976Z" fill="#ED6432"/>
<path d="M40.2509 8.67565H38.9185V7.3402H40.2509V8.67565Z" fill="#ED6432"/>
<path d="M50.1114 8.67565H48.7791V7.3402H50.1114V8.67565Z" fill="#ED6432"/>
<path d="M48.8911 4.55073L45.4247 8.02482L44.5288 7.12698L47.9952 3.65289L48.8911 4.55073Z" fill="#ED6432"/>
<path d="M44.5301 7.12315L43.6342 8.021L40.1678 4.54691L41.0637 3.64907L44.5301 7.12315Z" fill="#ED6432"/>
<path d="M45.181 3.71249H43.8486V2.37704H45.181V3.71249Z" fill="#ED6432"/>
<path fill-rule="evenodd" clip-rule="evenodd" d="M44.5135 0C46.6246 3.78877e-05 48.6492 0.840749 50.142 2.33688C51.6347 3.83301 52.4735 5.86213 52.4736 7.97797C52.4736 9.02561 52.2675 10.0631 51.8675 11.031C51.4675 11.999 50.8811 12.8785 50.142 13.6194C49.4028 14.3602 48.5254 14.9478 47.5597 15.3488C46.5939 15.7497 45.5588 15.9562 44.5135 15.9563C43.4682 15.9563 42.4328 15.7497 41.4671 15.3488C40.5014 14.9478 39.6239 14.3601 38.8848 13.6194C38.1456 12.8785 37.5593 11.999 37.1592 11.031C36.7592 10.0631 36.5532 9.02562 36.5532 7.97797C36.5532 5.86212 37.392 3.83301 38.8848 2.33688C40.3776 0.840742 42.4024 0 44.5135 0ZM44.5135 1.25099C42.7342 1.25347 41.0284 1.9632 39.7702 3.22421C38.512 4.4852 37.8037 6.19466 37.8012 7.97797C37.8037 9.76133 38.512 11.471 39.7702 12.732C41.0284 13.9931 42.7342 14.7028 44.5135 14.7053C46.2928 14.7027 47.9987 13.993 49.2569 12.732C50.515 11.471 51.2227 9.76128 51.2252 7.97797C51.221 6.19575 50.5124 4.48767 49.2544 3.22803C48.0357 2.0078 46.3978 1.30461 44.6799 1.2596L44.5135 1.25099Z" fill="#ED6432"/>
<path fill-rule="evenodd" clip-rule="evenodd" d="M62.54 0.00637447C64.65 0.00641169 66.6736 0.846245 68.1662 2.34102C69.6588 3.8358 70.4983 5.86322 70.5 7.97797C70.5 9.02561 70.294 10.0631 69.894 11.031C69.4939 11.999 68.9076 12.8785 68.1684 13.6194C67.4293 14.3602 66.5518 14.9478 65.5861 15.3488C64.6204 15.7497 63.5853 15.9562 62.54 15.9563C61.4946 15.9563 60.4593 15.7497 59.4935 15.3488C58.5278 14.9478 57.6503 14.3601 56.9112 13.6194C56.1721 12.8785 55.5857 11.999 55.1857 11.031C54.7856 10.0631 54.5796 9.02562 54.5796 7.97797C54.5813 5.86323 55.4209 3.8358 56.9134 2.34102C58.4061 0.846211 60.4299 0.00637382 62.54 0.00637447ZM59.3443 5.73575V7.54355L60.8736 6.32379L62.3026 5.16332L62.2151 6.95869V10.7365H59.3443V12.0436H65.735V10.7365H63.7816V3.34341H62.6395L59.3443 5.73575Z" fill="#ED6432"/>
</svg>
